<mxfile host="drawio-plugin" modified="2025-10-13T12:46:34.202Z" agent="Mozilla/5.0 (Windows NT 10.0; Win64; x64) AppleWebKit/537.36 (KHTML, like Gecko) Chrome/122.0.0.0 Safari/537.36" etag="YGM8BQbXW96uIwjXToYF" version="22.1.22" type="embed">
  <diagram id="5kznZad9YX3Mrop74nfJ" name="Page-1">
    <mxGraphModel dx="1030" dy="761" grid="1" gridSize="10" guides="1" tooltips="1" connect="1" arrows="1" fold="1" page="0" pageScale="1" pageWidth="827" pageHeight="1169" math="0" shadow="0">
      <root>
        <mxCell id="0" />
        <mxCell id="1" parent="0" />
      </root>
    </mxGraphModel>
  </diagram>
</mxfile>
